<svg xmlns="http://www.w3.org/2000/svg" width="208" height="56" stroke="none" stroke-linecap="round" stroke-linejoin="round" fill="#fff" fill-rule="evenodd"><path d="M2.1597437993 41.130499479h10.0148300095L9.0717933713 50.5h-6.912049572zm0-17.8152543438h15.913027837l-3.086697541 9.3694974516H2.1597437993zm0-17.815245135h21.8112256644l-3.1027819723 9.3694974516H2.1597437993zm31.6812129135 0h24.896287136v9.3694974516H30.73817781zm-9.0009767302 27.1815318395l3.1027789027-9.369500521H58.737243849v9.369500521zm-2.795375951 8.4441423H58.737243849v9.369494382H18.9401859902z" fill="#fd5750"/><path d="M107.2616834876 32.8553419242l2.410773868-7.290262391 2.0374431647.0064460507-3.2122205662 9.2986983275h-2.5363429365l-3.0287843792-9.3051443782h2.1162691568zm28.098887739-11.9605274548V33.064550036h2.813093382v1.8072761793h-4.805438748v-12.295258592h-1.985960706v-1.681753154zm-9.5401551104 6.393859226c.0402724694-.157713375.4602603017-1.805661597 2.0921179533-1.805661597h2.8002503933v2.014869709h-3.1011520423c-.7660732276 0-1.665659514.643736393-1.665659514 1.694626838l-.0080176593 5.680926013h-2.0519314312v-9.3292679558l1.8990311074-.0032230254zm28.7796643674 1.915100191c1.496637924.1609364004 3.7609820753.4425674272 3.88162759 2.7519510558.0579530657 1.0846861684-.373330703 1.7638236582-.7434813545 2.140395804-.957539352.97365448-2.4783898706 1.0380229-3.5357140884 1.0010102906-2.0679667498-.072416776-3.8462663962-.933418844-3.9202547806-.9720337577l.8609468164-1.754160721c.0128429887.0064337726 1.3936484504.7483312403 3.0287843792.872248892 2.4461350605.1850753256 2.4654609345-.7789162163 2.4461350605-1.187675642-.028976533-.542352293-.5149473685-.712933213-2.245018277-.9173282737-1.5369103936-.180243857-3.8591216632-.4538326683-3.913882399-2.8839109233-.0160475968-.749942753.2462145823-1.4162065585.764440228-1.9279738753.6919988958-.6839658887 1.8217521676-1.0508904452 3.1027850418-1.005829481 1.956971895.0675914465 3.6403120052.58740098 3.711120338.608323018l-.5793710415 1.866819271c-1.042492162-.2979426048-2.1161832094-.472937535-3.1993652993-.521414906-.7113124917-.024148134-1.3646841957.1496619507-1.6623812366.4425582186-.133586728.1287460508-.1882737947.283245609-.1850814648.494062164.0160475968.5680935222.3025346485.7676540447 2.191902819.9897450495zm13.8627416834 2.7358604854c.0578671185 1.0846861683-.3734289286 1.763823658-.7435673017 2.140401943-.9575393522.9736422008-2.4783162015 1.0380229-3.535628141 1.0010041515-2.0680649754-.072422915-3.8463523436-.933412705-3.9203530062-.9720337577l.7949760913-1.6189839673c.012928936.0064337726 1.4597174.6147567905 3.0947551043.7370721383 2.4461473387.1850691866 2.4654609346-.7789223554 2.4461473387-1.1876940594-.028976533-.5423338756-.5149473685-.7129209348-2.244944608-.917312926-1.5369840628-.1802438572-3.8591953324-.455438042-3.9155153986-2.8839109234-.016121266-.749942753.2462145822-1.416209628.764440228-1.9279738752.6919988958-.6839658888 1.8217521675-1.0508904452 3.1027850418-1.005829481 1.25695534.0531123886 2.5029462545.25736011 3.711120338.608323018l-.5793710414 1.8636054542c-.016121266-.0048314685-1.5128328592-.5214241147-3.1993652993-.5214241147-1.4870486563 0-1.8475363706.4747547073-1.8475363706.9366295913 0 .5680935222.3026083177.767644836 2.191902819.989735841 1.4967115933.1609364003 3.7610557445.4425674272 3.881701258 2.7519510558zm-90.6727344126-2.7358604854c1.496631785.1609364004 3.760975936.4425674272 3.8817135362 2.7519510558.0578671185 1.0846861684-.3734227895 1.7638236582-.7435673018 2.140395804-.957539352.97365448-2.4783162015 1.0380229-3.53562814 1.0010102906-2.0680588363-.072416776-3.8463523436-.933418844-3.920346867-.9720337577l.8609468164-1.754160721c.0129350752.0064337726 1.3937405368.7483312403 3.0287843792.872248892 2.4461411996.1850753256 2.4654609346-.7789162163 2.4461411996-1.187675642-.0288905855-.542352293-.5149473685-.712933213-2.244944608-.9173282737-1.5368981153-.180243857-3.8591953323-.4538326683-3.9155153985-2.8839109233-.016121266-.749942753.2462207213-1.4162065585.764440228-1.9279738753.6919988958-.6839658887 1.8217583066-1.0508904452 3.1027850418-1.005829481 1.25695534.053422413 2.5028664462.2576578572 3.711120338.608323018l-.5793649023 1.866819271c-.016127405-.0048314685-1.51275305-.463483327-3.1993714384-.521414906-.7113124917-.024148134-1.3646780566.1496619507-1.662467184.4425582186-.1335007806.1287460508-.189900655.283245609-.1850691866.494062164.012928936.5680935222.3026144568.7676540447 2.191902819.9897450495zm66.3010882775-3.8945718728c4.3966609048 0 4.3966609048 4.4739275665 4.3966609048 4.4739275665v1.197338579h-6.9844863c0 1.1377893484.992974214 2.360881435 2.8324069778 2.360881435 1.538543393 0 3.1333945743-.621190563 3.1333945743-.621190563l.5084890395 1.5996642324s-1.960176503.7837476847-3.806079874.7837476847c-4.3982939043 0-4.7249797563-3.9106685823-4.7249797563-4.9679958696s.7403013027-4.8279784386 4.644594434-4.8279784386zm2.4976297974 3.9846938014s.0901219286-2.209604902-2.4976297974-2.209604902c-2.3399778133 0-2.6119765986 2.209604902-2.6119765986 2.209604902zm-29.212519745-3.9798623328c4.3966609048 0 4.3966609048 4.4739275664 4.3966609048 4.4739275664v1.197338579h-6.9844126308c0 1.1378016266.9929005448 2.360881435 2.832419256 2.360881435 1.5384574457 0 3.133308627-.6211967022 3.133308627-.6211967022l.5085627087 1.5996642324s-1.960164225.7837476848-3.806067596.7837476848c-4.3982939043 0-4.7249797563-3.9106655128-4.7249797563-4.9679897306s.7402890246-4.8279815082 4.6445084866-4.8279815082zm2.4977157447 3.9846907317s.0901219286-2.2096018325-2.4977157447-2.2096018325c-2.3399778133 0-2.6118906512 2.2096018325-2.6118906512 2.2096018325zm-32.0047463397-3.9846907317c4.396740713 0 4.396740713 4.4739275664 4.396740713 4.4739275664v1.197338579h-6.98449244c0 1.1378016266.992980353 2.360881435 2.832419256 2.360881435 1.538537254 0 3.133308627-.6211967022 3.133308627-.6211967022l.5085688478 1.5996642324s-1.960176503.7837476848-3.8060798742.7837476848c-4.3982939043 0-4.7265329476-3.9106655128-4.7265329476-4.9679897306s.7434874936-4.8279815082 4.6445146257-4.8279815082zm2.4977157447 3.9846907317s.0901219286-2.2096018325-2.4977157447-2.2096018325c-2.339891866 0-2.6118967903 2.2096018325-2.6118967903 2.2096018325zm5.8708604332-2.0084359363c.040186522-.1577225837.4602603018-1.8056708057 2.0921179533-1.8056708057h2.800164446v2.014881987h-3.1027850418c-.7659872802 0-1.665659514.6437241147-1.665659514 1.69461456l-.0095769896 5.6809290826H94.30016109v-9.3292710253l1.8990311074-.0032230254z" fill="#000"/></svg>